<svg width="96" height="30" viewBox="0 0 96 30" fill="none" xmlns="http://www.w3.org/2000/svg">
<path d="M13.6994 0C18.8711 0 23.0636 4.19248 23.0636 9.36416C23.0636 14.5358 18.8711 18.7283 13.6994 18.7283H6.5896L6.5898 20.1891C8.60306 20.8459 10.0578 22.7386 10.0578 24.9711C10.0578 27.7485 7.80629 30 5.0289 30C2.25152 30 0 27.7485 0 24.9711C0 22.7385 1.45485 20.8457 3.46823 20.1891L3.46821 18.0347C3.46821 16.6939 4.55515 15.6069 5.89595 15.6069H13.6994C17.1472 15.6069 19.9422 12.812 19.9422 9.36416C19.9422 5.91637 17.1472 3.12139 13.6994 3.12139H5.46243C4.16951 3.12139 3.12139 4.16951 3.12139 5.46243C3.12139 6.75535 4.16951 7.80347 5.46243 7.80347L8.05034 7.80349C8.707 5.79011 10.5998 4.33526 12.8324 4.33526C15.6098 4.33526 17.8613 6.58678 17.8613 9.36416C17.8613 12.1415 15.6098 14.3931 12.8324 14.3931C10.5999 14.3931 8.70714 12.9383 8.05041 10.9251L5.46243 10.9249C2.44561 10.9249 0 8.47924 0 5.46243C0 2.44561 2.44561 0 5.46243 0H13.6994ZM5.0289 23.0636C3.97541 23.0636 3.12139 23.9176 3.12139 24.9711C3.12139 26.0246 3.97541 26.8786 5.0289 26.8786C6.08239 26.8786 6.93642 26.0246 6.93642 24.9711C6.93642 23.9176 6.08239 23.0636 5.0289 23.0636ZM12.8324 7.45665C11.7789 7.45665 10.9249 8.31067 10.9249 9.36416C10.9249 10.4177 11.7789 11.2717 12.8324 11.2717C13.8859 11.2717 14.7399 10.4177 14.7399 9.36416C14.7399 8.31067 13.8859 7.45665 12.8324 7.45665Z" fill="#FF0083"/>
<path d="M35.2283 7.6126C36.2456 7.6126 37.0606 7.76289 37.6733 8.06347C38.2861 8.36404 38.734 8.85248 39.0173 9.52878C39.3005 10.2051 39.4421 11.1155 39.4421 12.26C39.4421 13.9363 39.1098 15.1444 38.445 15.8843C37.7803 16.6242 36.7138 16.9941 35.2456 16.9941H31.76V21.5028H28.6733V7.6126H28.9681H31.76H35.2283ZM34.5173 14.2195C35.1762 14.2195 35.6444 14.0808 35.9219 13.8033C36.1994 13.5259 36.3381 13.0114 36.3381 12.26C36.3381 11.7166 36.2803 11.3091 36.1647 11.0375C36.0491 10.7658 35.8641 10.5837 35.6098 10.4912C35.3554 10.3987 34.9855 10.3525 34.4999 10.3525H31.76V14.2195H34.5173ZM49.1704 12.1213V21.4681H46.8988L46.7774 20.9999C46.604 21.2427 46.3236 21.419 45.9363 21.5288C45.5491 21.6386 45.0028 21.6935 44.2976 21.6935C43.0028 21.6935 42.0144 21.2687 41.3323 20.419C40.6502 19.5692 40.3092 18.4103 40.3092 16.9421C40.3092 15.3814 40.6647 14.1733 41.3757 13.3178C42.0866 12.4623 43.0606 12.0346 44.2976 12.0346C45.0259 12.0346 45.5722 12.075 45.9363 12.156C46.3005 12.2369 46.5866 12.3756 46.7947 12.5721L46.9508 12.1213H49.1704ZM44.8352 19.2484C45.367 19.2484 45.7861 19.1473 46.0924 18.945C46.3988 18.7427 46.604 18.3987 46.708 17.9132V15.5721C46.604 15.1444 46.4046 14.8525 46.1098 14.6964C45.815 14.5403 45.3901 14.4623 44.8352 14.4623C44.2109 14.4623 43.734 14.6704 43.4046 15.0866C43.0751 15.5028 42.9103 16.1213 42.9103 16.9421C42.9103 17.7744 43.0664 18.3669 43.3785 18.7195C43.6907 19.0721 44.1762 19.2484 44.8352 19.2484ZM56.5491 12.156L56.2716 14.8438C55.8323 14.7744 55.445 14.7398 55.1098 14.7398C54.4161 14.7398 53.9306 14.9218 53.6531 15.286C53.3757 15.6502 53.2369 16.26 53.2369 17.1155V21.4854H50.6878V12.0346H53.0982V12.971C53.1907 12.682 53.3641 12.4739 53.6184 12.3467C53.8728 12.2195 54.2889 12.156 54.867 12.156H56.5491ZM66.2774 12.1213V21.4681H64.0057L63.8843 20.9999C63.7109 21.2427 63.4306 21.419 63.0433 21.5288C62.656 21.6386 62.1098 21.6935 61.4046 21.6935C60.1098 21.6935 59.1213 21.2687 58.4392 20.419C57.7572 19.5692 57.4161 18.4103 57.4161 16.9421C57.4161 15.3814 57.7716 14.1733 58.4826 13.3178C59.1936 12.4623 60.1676 12.0346 61.4046 12.0346C62.1329 12.0346 62.6791 12.075 63.0433 12.156C63.4074 12.2369 63.6936 12.3756 63.9017 12.5721L64.0577 12.1213H66.2774ZM61.9421 19.2484C62.4739 19.2484 62.893 19.1473 63.1994 18.945C63.5057 18.7427 63.7109 18.3987 63.815 17.9132V15.5721C63.7109 15.1444 63.5115 14.8525 63.2167 14.6964C62.9219 14.5403 62.497 14.4623 61.9421 14.4623C61.3179 14.4623 60.841 14.6704 60.5115 15.0866C60.182 15.5028 60.0173 16.1213 60.0173 16.9421C60.0173 17.7744 60.1733 18.3669 60.4855 18.7195C60.7976 19.0721 61.2832 19.2484 61.9421 19.2484ZM70.6213 21.4854V7.50855H67.7947V21.4854H70.6213ZM73.6994 10.6473C74.1387 10.6473 74.5086 10.4941 74.8092 10.1877C75.1098 9.88138 75.26 9.50855 75.26 9.06925C75.26 8.62994 75.1069 8.25711 74.8005 7.95075C74.4941 7.64439 74.1271 7.49121 73.6994 7.49121C73.2716 7.49121 72.9046 7.64439 72.5982 7.95075C72.2918 8.25711 72.1387 8.62994 72.1387 9.06925C72.1387 9.50855 72.2889 9.88138 72.5895 10.1877C72.8901 10.4941 73.26 10.6473 73.6994 10.6473ZM75.104 21.4507V11.7398H72.3294V21.4507H75.104ZM79.5173 12.6588C79.7369 12.4276 80.0404 12.2716 80.4277 12.1906C80.815 12.1097 81.4306 12.0692 82.2745 12.0692C83.3496 12.0692 84.1387 12.312 84.6416 12.7976C85.1444 13.2831 85.3959 14.0461 85.3959 15.0866V21.5028H82.604V16.1097C82.604 15.6242 82.4855 15.2716 82.2485 15.0519C82.0115 14.8323 81.6271 14.7224 81.0953 14.7224C80.5404 14.7224 80.1387 14.8294 79.8901 15.0432C79.6415 15.2571 79.5173 15.5895 79.5173 16.0403V21.5028H76.7947L76.7774 12.1386H79.5173V12.6588ZM90.5895 17.6877L89.7572 18.5895V21.4854H86.9132V7.71664H89.7572V14.8612L92.2889 12.1733H95.7051L92.4277 15.7109C93.0982 16.8323 94.2774 18.7687 95.9652 21.5201H92.7398L90.5895 17.6877Z" fill="black"/>
</svg>
