<svg width="8" height="9" viewBox="0 0 8 9" fill="none" xmlns="http://www.w3.org/2000/svg">
    <path opacity="0.5"
        d="M1.6 8.5C0.716344 8.5 0 7.78366 0 6.9V2.10001C0 1.21635 0.716344 0.500004 1.6 0.500004H2.66666C2.85769 0.499277 3.03452 0.600769 3.13025 0.766083C3.22597 0.931396 3.22597 1.13528 3.13025 1.3006C3.03452 1.46591 2.85769 1.5674 2.66666 1.56667H1.6C1.30545 1.56667 1.06666 1.80545 1.06666 2.10001V6.9C1.06667 7.19455 1.30545 7.43333 1.6 7.43333H6.4C6.69455 7.43333 6.93333 7.19455 6.93334 6.9V5.83333C6.93446 5.53958 7.17291 5.30204 7.46667 5.30204C7.76042 5.30204 7.99888 5.53958 8 5.83333V6.9C8 7.78366 7.28366 8.5 6.4 8.5H1.6ZM2.2896 6.212C2.18929 6.11194 2.13291 5.97608 2.13291 5.8344C2.13291 5.69272 2.18929 5.55686 2.2896 5.4568L6.1792 1.56933H4.8C4.50625 1.56821 4.2687 1.32976 4.2687 1.036C4.2687 0.742247 4.50625 0.503796 4.8 0.502672H7.46666C7.76122 0.502672 8 0.741454 8 1.03601V3.70267C7.99888 3.99642 7.76042 4.23396 7.46667 4.23396C7.17291 4.23396 6.93446 3.99642 6.93334 3.70267V2.32241L3.04373 6.21574C2.83462 6.4219 2.49871 6.4219 2.2896 6.21574V6.212Z"
        fill="#FF0083" />
</svg>