<svg width="24" height="24" viewBox="0 0 24 24" fill="none" xmlns="http://www.w3.org/2000/svg">
<rect width="24" height="24" rx="12" fill="white"/>
<path fill-rule="evenodd" clip-rule="evenodd" d="M9.84898 6L9.79405 6.00049C9.46969 6.00729 7.7589 6.11125 5.97839 7.51123L5.95202 7.5625C5.71777 8.02437 4 11.5567 4 15.8223C4 15.8223 5.16118 17.9111 8.21471 18C8.21471 18 8.68784 17.3331 9.1179 16.7998C7.3546 16.2665 6.70946 15.1113 6.70946 15.1113L6.74108 15.1318C6.79374 15.1655 6.91223 15.2383 7.09655 15.3335C7.09655 15.3335 7.09651 15.3779 7.13952 15.3779C7.18253 15.4224 7.22553 15.4224 7.26854 15.4668C7.6126 15.689 7.95675 15.8222 8.2578 15.9556C8.8169 16.1778 9.50502 16.3999 10.2792 16.5776C11.3113 16.7554 12.5155 16.8443 13.8487 16.5776C14.4938 16.4443 15.139 16.2667 15.8271 15.9556C16.3002 15.7778 16.8592 15.5113 17.4183 15.1113C17.4183 15.1113 16.7302 16.2665 14.9239 16.7998C14.9755 16.8709 15.0294 16.944 15.0841 17.0166L15.2489 17.2319C15.5495 17.6207 15.8271 17.9556 15.8271 17.9556C18.8806 17.8667 20.0419 15.7778 19.9989 15.8223C19.9989 11.5567 18.2811 8.02437 18.0468 7.5625L18.0235 7.51709C16.24 6.11135 14.529 6.00729 14.2047 6.00049L14.1497 6L13.9778 6.22217C16.3432 6.97772 17.4183 8.04443 17.4183 8.04443C15.999 7.2 14.5799 6.84477 13.2896 6.66699C12.3005 6.5781 11.3543 6.5781 10.4941 6.71143C10.4511 6.71143 10.3652 6.75586 10.2792 6.75586C9.76307 6.8003 8.60177 6.97787 7.13952 7.64453C6.62343 7.86675 6.32238 8.04443 6.32238 8.04443C6.32238 8.04443 7.48357 6.93327 9.97801 6.17773L9.84898 6ZM14.5 11C15.3181 11 16 11.6667 16 12.5C16 13.3333 15.3181 14 14.5 14C13.6818 14 13 13.3333 13 12.5C13 11.6667 13.6818 11 14.5 11ZM9.49998 11C10.3182 11 11 11.6667 11 12.5C11 13.3333 10.3182 14 9.49998 14C8.68181 14 7.99999 13.3333 7.99999 12.5C7.99999 11.6667 8.68181 11 9.49998 11Z" fill="#FF0083"/>
</svg>
