<svg width="24" height="24" viewBox="0 0 24 24" fill="none" xmlns="http://www.w3.org/2000/svg">
<rect width="24" height="24" rx="12" fill="white"/>
<path d="M14.569 18.4256C14.5631 18.3763 14.5606 18.3266 14.5616 18.277C14.5535 18.2617 14.5484 18.2448 14.5466 18.2273V16.0941C14.5466 15.4222 14.33 14.8486 13.8967 14.3744C15.0552 14.1537 15.9217 13.6828 16.4957 12.9606C17.0697 12.2385 17.3572 11.3644 17.3572 10.3391C17.3572 9.37981 17.0752 8.54729 16.5107 7.84206C16.7123 7.13627 16.6769 6.39224 16.4053 5.60943C16.1228 5.58757 15.8159 5.64003 15.4835 5.76676C15.151 5.89348 14.9045 6.01203 14.7428 6.12182C14.582 6.23217 14.4358 6.33707 14.305 6.43648C13.7205 6.26004 13.0682 6.17155 12.3484 6.17155C11.6277 6.17155 10.9808 6.26004 10.4063 6.43648C10.2955 6.348 10.1667 6.25185 10.021 6.14696C9.87474 6.04207 9.62069 5.91535 9.25783 5.76676C8.89545 5.61762 8.56804 5.55425 8.27553 5.57666C7.99353 6.3704 7.96358 7.12534 8.18519 7.84204C7.63117 8.54784 7.35415 9.37981 7.35415 10.3391C7.35415 11.3644 7.63616 12.2357 8.20018 12.9519C8.76419 13.6686 9.63067 14.1428 10.7991 14.3744C10.5 14.6886 10.2903 15.0908 10.1952 15.5325C9.33868 15.7636 8.73922 15.5981 8.39682 15.0354C7.76193 14.0215 7.19293 13.6577 6.68931 13.9445C6.61845 14.0215 6.62892 14.1013 6.71926 14.1843C6.81011 14.2668 6.94586 14.3771 7.12754 14.5148C7.30872 14.653 7.4445 14.8043 7.53532 14.9698C7.54531 14.9917 7.57325 15.072 7.61869 15.2097C7.66208 15.3426 7.70734 15.4748 7.75446 15.6063C7.79938 15.733 7.88522 15.8739 8.0115 16.028C8.13728 16.1826 8.28353 16.312 8.44974 16.4169C8.61595 16.5213 8.84504 16.5988 9.13703 16.6486C9.42903 16.6977 9.76144 16.7004 10.1343 16.6567V18.3185C10.1343 18.3349 10.1318 18.3622 10.1268 18.4015C10.1218 18.4398 14.569 18.4256 14.569 18.4256Z" fill="#FF0083"/>
</svg>
